<?xml version="1.0" encoding="UTF-8" standalone="no"?>
<!DOCTYPE svg PUBLIC "-//W3C//DTD SVG 1.1//EN"
 "http://www.w3.org/Graphics/SVG/1.1/DTD/svg11.dtd">
<!-- Generated by graphviz version 2.44.0 ()
 -->
<!-- Title: spic::Collider Pages: 1 -->
<svg width="334pt" height="140pt"
 viewBox="0.00 0.00 334.00 140.00" xmlns="http://www.w3.org/2000/svg" xmlns:xlink="http://www.w3.org/1999/xlink">
<g id="graph0" class="graph" transform="scale(1 1) rotate(0) translate(4 136)">
<title>spic::Collider</title>
<polygon fill="white" stroke="transparent" points="-4,4 -4,-136 330,-136 330,4 -4,4"/>
<!-- Node1 -->
<g id="node1" class="node">
<title>Node1</title>
<g id="a_node1"><a xlink:title="The base class for all colliders.">
<polygon fill="#bfbfbf" stroke="black" points="118.5,-56.5 118.5,-75.5 189.5,-75.5 189.5,-56.5 118.5,-56.5"/>
<text text-anchor="middle" x="154" y="-63.5" font-family="Helvetica,sans-Serif" font-size="10.00">spic::Collider</text>
</a>
</g>
</g>
<!-- Node3 -->
<g id="node3" class="node">
<title>Node3</title>
<g id="a_node3"><a xlink:href="classspic_1_1BoxCollider.html" target="_top" xlink:title="A collider which represents a rectangular collision area.">
<polygon fill="white" stroke="black" points="0,-0.5 0,-19.5 88,-19.5 88,-0.5 0,-0.5"/>
<text text-anchor="middle" x="44" y="-7.5" font-family="Helvetica,sans-Serif" font-size="10.00">spic::BoxCollider</text>
</a>
</g>
</g>
<!-- Node1&#45;&gt;Node3 -->
<g id="edge2" class="edge">
<title>Node1&#45;&gt;Node3</title>
<path fill="none" stroke="midnightblue" d="M127.24,-51.86C106.84,-41.85 79.33,-28.35 61.63,-19.65"/>
<polygon fill="midnightblue" stroke="midnightblue" points="125.81,-55.06 136.33,-56.32 128.89,-48.78 125.81,-55.06"/>
</g>
<!-- Node4 -->
<g id="node4" class="node">
<title>Node4</title>
<g id="a_node4"><a xlink:href="classspic_1_1CircleCollider.html" target="_top" xlink:title="A collider which represents a circular collision area.">
<polygon fill="white" stroke="black" points="106,-0.5 106,-19.5 202,-19.5 202,-0.5 106,-0.5"/>
<text text-anchor="middle" x="154" y="-7.5" font-family="Helvetica,sans-Serif" font-size="10.00">spic::CircleCollider</text>
</a>
</g>
</g>
<!-- Node1&#45;&gt;Node4 -->
<g id="edge3" class="edge">
<title>Node1&#45;&gt;Node4</title>
<path fill="none" stroke="midnightblue" d="M154,-45.8C154,-36.91 154,-26.78 154,-19.75"/>
<polygon fill="midnightblue" stroke="midnightblue" points="150.5,-46.08 154,-56.08 157.5,-46.08 150.5,-46.08"/>
</g>
<!-- Node5 -->
<g id="node5" class="node">
<title>Node5</title>
<g id="a_node5"><a xlink:href="classspic_1_1PolygonCollider.html" target="_top" xlink:title=" ">
<polygon fill="white" stroke="black" points="220,-0.5 220,-19.5 326,-19.5 326,-0.5 220,-0.5"/>
<text text-anchor="middle" x="273" y="-7.5" font-family="Helvetica,sans-Serif" font-size="10.00">spic::PolygonCollider</text>
</a>
</g>
</g>
<!-- Node1&#45;&gt;Node5 -->
<g id="edge4" class="edge">
<title>Node1&#45;&gt;Node5</title>
<path fill="none" stroke="midnightblue" d="M182.14,-52.23C204.4,-42.13 234.86,-28.31 254.23,-19.52"/>
<polygon fill="midnightblue" stroke="midnightblue" points="180.52,-49.12 172.86,-56.44 183.41,-55.5 180.52,-49.12"/>
</g>
<!-- Node2 -->
<g id="node2" class="node">
<title>Node2</title>
<g id="a_node2"><a xlink:href="classspic_1_1Component.html" target="_top" xlink:title="Base class for all components.">
<polygon fill="white" stroke="black" points="109.5,-112.5 109.5,-131.5 198.5,-131.5 198.5,-112.5 109.5,-112.5"/>
<text text-anchor="middle" x="154" y="-119.5" font-family="Helvetica,sans-Serif" font-size="10.00">spic::Component</text>
</a>
</g>
</g>
<!-- Node2&#45;&gt;Node1 -->
<g id="edge1" class="edge">
<title>Node2&#45;&gt;Node1</title>
<path fill="none" stroke="midnightblue" d="M154,-101.8C154,-92.91 154,-82.78 154,-75.75"/>
<polygon fill="midnightblue" stroke="midnightblue" points="150.5,-102.08 154,-112.08 157.5,-102.08 150.5,-102.08"/>
</g>
</g>
</svg>
