<?xml version="1.0" encoding="UTF-8" standalone="no"?>
<!DOCTYPE svg PUBLIC "-//W3C//DTD SVG 1.1//EN"
 "http://www.w3.org/Graphics/SVG/1.1/DTD/svg11.dtd">
<!-- Generated by graphviz version 2.44.0 ()
 -->
<!-- Title: spic::CircleCollider Pages: 1 -->
<svg width="210pt" height="152pt"
 viewBox="0.00 0.00 210.00 152.00" xmlns="http://www.w3.org/2000/svg" xmlns:xlink="http://www.w3.org/1999/xlink">
<g id="graph0" class="graph" transform="scale(1 1) rotate(0) translate(4 148)">
<title>spic::CircleCollider</title>
<polygon fill="white" stroke="transparent" points="-4,4 -4,-148 206,-148 206,4 -4,4"/>
<!-- Node1 -->
<g id="node1" class="node">
<title>Node1</title>
<g id="a_node1"><a xlink:title="A collider which represents a circular collision area.">
<polygon fill="#bfbfbf" stroke="black" points="51.5,-0.5 51.5,-19.5 147.5,-19.5 147.5,-0.5 51.5,-0.5"/>
<text text-anchor="middle" x="99.5" y="-7.5" font-family="Helvetica,sans-Serif" font-size="10.00">spic::CircleCollider</text>
</a>
</g>
</g>
<!-- Node2 -->
<g id="node2" class="node">
<title>Node2</title>
<g id="a_node2"><a xlink:href="classspic_1_1Collider.html" target="_top" xlink:title="The base class for all colliders.">
<polygon fill="white" stroke="black" points="64,-57.5 64,-76.5 135,-76.5 135,-57.5 64,-57.5"/>
<text text-anchor="middle" x="99.5" y="-64.5" font-family="Helvetica,sans-Serif" font-size="10.00">spic::Collider</text>
</a>
</g>
</g>
<!-- Node2&#45;&gt;Node1 -->
<g id="edge1" class="edge">
<title>Node2&#45;&gt;Node1</title>
<path fill="none" stroke="midnightblue" d="M99.5,-47.12C99.5,-37.82 99.5,-27.06 99.5,-19.71"/>
<polygon fill="midnightblue" stroke="midnightblue" points="96,-47.41 99.5,-57.41 103,-47.41 96,-47.41"/>
</g>
<!-- Node3 -->
<g id="node3" class="node">
<title>Node3</title>
<g id="a_node3"><a xlink:href="classspic_1_1Component.html" target="_top" xlink:title="Base class for all components.">
<polygon fill="white" stroke="black" points="0,-124.5 0,-143.5 89,-143.5 89,-124.5 0,-124.5"/>
<text text-anchor="middle" x="44.5" y="-131.5" font-family="Helvetica,sans-Serif" font-size="10.00">spic::Component</text>
</a>
</g>
</g>
<!-- Node3&#45;&gt;Node2 -->
<g id="edge2" class="edge">
<title>Node3&#45;&gt;Node2</title>
<path fill="none" stroke="midnightblue" d="M58.66,-116.27C69.38,-103.6 83.68,-86.7 92.2,-76.63"/>
<polygon fill="midnightblue" stroke="midnightblue" points="55.71,-114.34 51.92,-124.23 61.05,-118.86 55.71,-114.34"/>
</g>
<!-- Node4 -->
<g id="node4" class="node">
<title>Node4</title>
<g id="a_node4"><a xlink:href="structspic_1_1Vector2.html" target="_top" xlink:title="Struct representing both a 2D point and a 2D vector.">
<polygon fill="white" stroke="black" points="107,-124.5 107,-143.5 202,-143.5 202,-124.5 107,-124.5"/>
<text text-anchor="middle" x="154.5" y="-131.5" font-family="Helvetica,sans-Serif" font-size="10.00">spic::Vector2&lt; T &gt;</text>
</a>
</g>
</g>
<!-- Node4&#45;&gt;Node2 -->
<g id="edge3" class="edge">
<title>Node4&#45;&gt;Node2</title>
<path fill="none" stroke="#9a32cd" stroke-dasharray="5,2" d="M140.34,-116.27C129.62,-103.6 115.32,-86.7 106.8,-76.63"/>
<polygon fill="#9a32cd" stroke="#9a32cd" points="137.95,-118.86 147.08,-124.23 143.29,-114.34 137.95,-118.86"/>
<text text-anchor="middle" x="143" y="-98" font-family="Helvetica,sans-Serif" font-size="10.00"> offset</text>
</g>
</g>
</svg>
