<?xml version="1.0" encoding="UTF-8" standalone="no"?>
<!DOCTYPE svg PUBLIC "-//W3C//DTD SVG 1.1//EN"
 "http://www.w3.org/Graphics/SVG/1.1/DTD/svg11.dtd">
<!-- Generated by graphviz version 2.44.0 ()
 -->
<!-- Title: spic::Button Pages: 1 -->
<svg width="162pt" height="276pt"
 viewBox="0.00 0.00 161.50 276.00" xmlns="http://www.w3.org/2000/svg" xmlns:xlink="http://www.w3.org/1999/xlink">
<g id="graph0" class="graph" transform="scale(1 1) rotate(0) translate(4 272)">
<title>spic::Button</title>
<polygon fill="white" stroke="transparent" points="-4,4 -4,-272 157.5,-272 157.5,4 -4,4"/>
<!-- Node1 -->
<g id="node1" class="node">
<title>Node1</title>
<g id="a_node1"><a xlink:title="Instances of this class are clickable user interface items.">
<polygon fill="#bfbfbf" stroke="black" points="19.5,-0.5 19.5,-19.5 87.5,-19.5 87.5,-0.5 19.5,-0.5"/>
<text text-anchor="middle" x="53.5" y="-7.5" font-family="Helvetica,sans-Serif" font-size="10.00">spic::Button</text>
</a>
</g>
</g>
<!-- Node1&#45;&gt;Node1 -->
<g id="edge6" class="edge">
<title>Node1&#45;&gt;Node1</title>
<path fill="none" stroke="#9a32cd" stroke-dasharray="5,2" d="M97.65,-14.39C102.42,-13.55 105.5,-12.08 105.5,-10 105.5,-6.66 97.63,-4.92 87.51,-4.76"/>
<polygon fill="#9a32cd" stroke="#9a32cd" points="97.18,-10.92 87.51,-15.24 97.77,-17.89 97.18,-10.92"/>
<text text-anchor="middle" x="118" y="-7.5" font-family="Helvetica,sans-Serif" font-size="10.00"> Click</text>
</g>
<!-- Node2 -->
<g id="node2" class="node">
<title>Node2</title>
<g id="a_node2"><a xlink:href="classspic_1_1UIObject.html" target="_top" xlink:title="Base class for a user interface object like Button or Text.">
<polygon fill="white" stroke="black" points="14.5,-57.5 14.5,-76.5 92.5,-76.5 92.5,-57.5 14.5,-57.5"/>
<text text-anchor="middle" x="53.5" y="-64.5" font-family="Helvetica,sans-Serif" font-size="10.00">spic::UIObject</text>
</a>
</g>
</g>
<!-- Node2&#45;&gt;Node1 -->
<g id="edge1" class="edge">
<title>Node2&#45;&gt;Node1</title>
<path fill="none" stroke="midnightblue" d="M53.5,-47.12C53.5,-37.82 53.5,-27.06 53.5,-19.71"/>
<polygon fill="midnightblue" stroke="midnightblue" points="50,-47.41 53.5,-57.41 57,-47.41 50,-47.41"/>
</g>
<!-- Node2&#45;&gt;Node2 -->
<g id="edge5" class="edge">
<title>Node2&#45;&gt;Node2</title>
<path fill="none" stroke="#9a32cd" stroke-dasharray="5,2" d="M102.78,-71.24C107.5,-70.38 110.5,-68.97 110.5,-67 110.5,-63.86 102.83,-62.12 92.66,-61.8"/>
<polygon fill="#9a32cd" stroke="#9a32cd" points="102.29,-67.77 92.66,-72.2 102.95,-74.74 102.29,-67.77"/>
<text text-anchor="middle" x="132" y="-64.5" font-family="Helvetica,sans-Serif" font-size="10.00"> GetWidth</text>
</g>
<!-- Node3 -->
<g id="node3" class="node">
<title>Node3</title>
<g id="a_node3"><a xlink:href="classspic_1_1GameObject.html" target="_top" xlink:title="Any object which should be represented on screen.">
<polygon fill="white" stroke="black" points="6.5,-114.5 6.5,-133.5 100.5,-133.5 100.5,-114.5 6.5,-114.5"/>
<text text-anchor="middle" x="53.5" y="-121.5" font-family="Helvetica,sans-Serif" font-size="10.00">spic::GameObject</text>
</a>
</g>
</g>
<!-- Node3&#45;&gt;Node2 -->
<g id="edge2" class="edge">
<title>Node3&#45;&gt;Node2</title>
<path fill="none" stroke="midnightblue" d="M53.5,-104.12C53.5,-94.82 53.5,-84.06 53.5,-76.71"/>
<polygon fill="midnightblue" stroke="midnightblue" points="50,-104.41 53.5,-114.41 57,-104.41 50,-104.41"/>
</g>
<!-- Node4 -->
<g id="node4" class="node">
<title>Node4</title>
<g id="a_node4"><a xlink:href="classspic_1_1Transform.html" target="_top" xlink:title="Instances of this class represent specific 2D transformations.">
<polygon fill="white" stroke="black" points="12,-181.5 12,-200.5 95,-200.5 95,-181.5 12,-181.5"/>
<text text-anchor="middle" x="53.5" y="-188.5" font-family="Helvetica,sans-Serif" font-size="10.00">spic::Transform</text>
</a>
</g>
</g>
<!-- Node4&#45;&gt;Node3 -->
<g id="edge3" class="edge">
<title>Node4&#45;&gt;Node3</title>
<path fill="none" stroke="#9a32cd" stroke-dasharray="5,2" d="M53.5,-171.04C53.5,-158.67 53.5,-143.12 53.5,-133.63"/>
<polygon fill="#9a32cd" stroke="#9a32cd" points="50,-171.23 53.5,-181.23 57,-171.23 50,-171.23"/>
<text text-anchor="middle" x="75.5" y="-155" font-family="Helvetica,sans-Serif" font-size="10.00"> transform</text>
</g>
<!-- Node5 -->
<g id="node5" class="node">
<title>Node5</title>
<g id="a_node5"><a xlink:href="structspic_1_1Vector2.html" target="_top" xlink:title=" ">
<polygon fill="white" stroke="black" points="0,-248.5 0,-267.5 107,-267.5 107,-248.5 0,-248.5"/>
<text text-anchor="middle" x="53.5" y="-255.5" font-family="Helvetica,sans-Serif" font-size="10.00">spic::Vector2&lt; float &gt;</text>
</a>
</g>
</g>
<!-- Node5&#45;&gt;Node4 -->
<g id="edge4" class="edge">
<title>Node5&#45;&gt;Node4</title>
<path fill="none" stroke="#9a32cd" stroke-dasharray="5,2" d="M53.5,-238.04C53.5,-225.67 53.5,-210.12 53.5,-200.63"/>
<polygon fill="#9a32cd" stroke="#9a32cd" points="50,-238.23 53.5,-248.23 57,-238.23 50,-238.23"/>
<text text-anchor="middle" x="72.5" y="-222" font-family="Helvetica,sans-Serif" font-size="10.00"> Position</text>
</g>
</g>
</svg>
