<?xml version="1.0" encoding="UTF-8" standalone="no"?>
<!DOCTYPE svg PUBLIC "-//W3C//DTD SVG 1.1//EN"
 "http://www.w3.org/Graphics/SVG/1.1/DTD/svg11.dtd">
<!-- Generated by graphviz version 2.44.0 ()
 -->
<!-- Title: spic::UIObject Pages: 1 -->
<svg width="155pt" height="85pt"
 viewBox="0.00 0.00 155.00 85.00" xmlns="http://www.w3.org/2000/svg" xmlns:xlink="http://www.w3.org/1999/xlink">
<g id="graph0" class="graph" transform="scale(1 1) rotate(0) translate(4 81)">
<title>spic::UIObject</title>
<polygon fill="white" stroke="transparent" points="-4,4 -4,-81 151,-81 151,4 -4,4"/>
<!-- Node1 -->
<g id="node1" class="node">
<title>Node1</title>
<g id="a_node1"><a xlink:title="Base class for a user interface object like Button or Text.">
<polygon fill="#bfbfbf" stroke="black" points="8,-0.5 8,-19.5 86,-19.5 86,-0.5 8,-0.5"/>
<text text-anchor="middle" x="47" y="-7.5" font-family="Helvetica,sans-Serif" font-size="10.00">spic::UIObject</text>
</a>
</g>
</g>
<!-- Node1&#45;&gt;Node1 -->
<g id="edge2" class="edge">
<title>Node1&#45;&gt;Node1</title>
<path fill="none" stroke="#9a32cd" stroke-dasharray="5,2" d="M96.28,-14.24C101,-13.38 104,-11.97 104,-10 104,-6.86 96.33,-5.12 86.16,-4.8"/>
<polygon fill="#9a32cd" stroke="#9a32cd" points="95.79,-10.77 86.16,-15.2 96.45,-17.74 95.79,-10.77"/>
<text text-anchor="middle" x="125.5" y="-7.5" font-family="Helvetica,sans-Serif" font-size="10.00"> GetWidth</text>
</g>
<!-- Node2 -->
<g id="node2" class="node">
<title>Node2</title>
<g id="a_node2"><a xlink:href="classspic_1_1GameObject.html" target="_top" xlink:title="Any object which should be represented on screen.">
<polygon fill="white" stroke="black" points="0,-57.5 0,-76.5 94,-76.5 94,-57.5 0,-57.5"/>
<text text-anchor="middle" x="47" y="-64.5" font-family="Helvetica,sans-Serif" font-size="10.00">spic::GameObject</text>
</a>
</g>
</g>
<!-- Node2&#45;&gt;Node1 -->
<g id="edge1" class="edge">
<title>Node2&#45;&gt;Node1</title>
<path fill="none" stroke="midnightblue" d="M47,-47.12C47,-37.82 47,-27.06 47,-19.71"/>
<polygon fill="midnightblue" stroke="midnightblue" points="43.5,-47.41 47,-57.41 50.5,-47.41 43.5,-47.41"/>
</g>
</g>
</svg>
