<?xml version="1.0" encoding="UTF-8" standalone="no"?>
<!DOCTYPE svg PUBLIC "-//W3C//DTD SVG 1.1//EN"
 "http://www.w3.org/Graphics/SVG/1.1/DTD/svg11.dtd">
<!-- Generated by graphviz version 2.44.0 ()
 -->
<!-- Title: spic::Camera Pages: 1 -->
<svg width="209pt" height="219pt"
 viewBox="0.00 0.00 209.00 219.00" xmlns="http://www.w3.org/2000/svg" xmlns:xlink="http://www.w3.org/1999/xlink">
<g id="graph0" class="graph" transform="scale(1 1) rotate(0) translate(4 215)">
<title>spic::Camera</title>
<polygon fill="white" stroke="transparent" points="-4,4 -4,-215 205,-215 205,4 -4,4"/>
<!-- Node1 -->
<g id="node1" class="node">
<title>Node1</title>
<g id="a_node1"><a xlink:title="Class representing a point of view towards the game scene.">
<polygon fill="#bfbfbf" stroke="black" points="17,-0.5 17,-19.5 90,-19.5 90,-0.5 17,-0.5"/>
<text text-anchor="middle" x="53.5" y="-7.5" font-family="Helvetica,sans-Serif" font-size="10.00">spic::Camera</text>
</a>
</g>
</g>
<!-- Node1&#45;&gt;Node1 -->
<g id="edge4" class="edge">
<title>Node1&#45;&gt;Node1</title>
<path fill="none" stroke="#9a32cd" stroke-dasharray="5,2" d="M100.26,-14.31C104.98,-13.45 108,-12.02 108,-10 108,-6.77 100.28,-5.03 90.18,-4.78"/>
<polygon fill="#9a32cd" stroke="#9a32cd" points="99.82,-10.83 90.18,-15.22 100.45,-17.8 99.82,-10.83"/>
<text text-anchor="middle" x="154.5" y="-7.5" font-family="Helvetica,sans-Serif" font-size="10.00"> GetBackgroundColor</text>
</g>
<!-- Node2 -->
<g id="node2" class="node">
<title>Node2</title>
<g id="a_node2"><a xlink:href="classspic_1_1GameObject.html" target="_top" xlink:title="Any object which should be represented on screen.">
<polygon fill="white" stroke="black" points="6.5,-57.5 6.5,-76.5 100.5,-76.5 100.5,-57.5 6.5,-57.5"/>
<text text-anchor="middle" x="53.5" y="-64.5" font-family="Helvetica,sans-Serif" font-size="10.00">spic::GameObject</text>
</a>
</g>
</g>
<!-- Node2&#45;&gt;Node1 -->
<g id="edge1" class="edge">
<title>Node2&#45;&gt;Node1</title>
<path fill="none" stroke="midnightblue" d="M53.5,-47.12C53.5,-37.82 53.5,-27.06 53.5,-19.71"/>
<polygon fill="midnightblue" stroke="midnightblue" points="50,-47.41 53.5,-57.41 57,-47.41 50,-47.41"/>
</g>
<!-- Node3 -->
<g id="node3" class="node">
<title>Node3</title>
<g id="a_node3"><a xlink:href="classspic_1_1Transform.html" target="_top" xlink:title="Instances of this class represent specific 2D transformations.">
<polygon fill="white" stroke="black" points="12,-124.5 12,-143.5 95,-143.5 95,-124.5 12,-124.5"/>
<text text-anchor="middle" x="53.5" y="-131.5" font-family="Helvetica,sans-Serif" font-size="10.00">spic::Transform</text>
</a>
</g>
</g>
<!-- Node3&#45;&gt;Node2 -->
<g id="edge2" class="edge">
<title>Node3&#45;&gt;Node2</title>
<path fill="none" stroke="#9a32cd" stroke-dasharray="5,2" d="M53.5,-114.04C53.5,-101.67 53.5,-86.12 53.5,-76.63"/>
<polygon fill="#9a32cd" stroke="#9a32cd" points="50,-114.23 53.5,-124.23 57,-114.23 50,-114.23"/>
<text text-anchor="middle" x="75.5" y="-98" font-family="Helvetica,sans-Serif" font-size="10.00"> transform</text>
</g>
<!-- Node4 -->
<g id="node4" class="node">
<title>Node4</title>
<g id="a_node4"><a xlink:href="structspic_1_1Vector2.html" target="_top" xlink:title=" ">
<polygon fill="white" stroke="black" points="0,-191.5 0,-210.5 107,-210.5 107,-191.5 0,-191.5"/>
<text text-anchor="middle" x="53.5" y="-198.5" font-family="Helvetica,sans-Serif" font-size="10.00">spic::Vector2&lt; float &gt;</text>
</a>
</g>
</g>
<!-- Node4&#45;&gt;Node3 -->
<g id="edge3" class="edge">
<title>Node4&#45;&gt;Node3</title>
<path fill="none" stroke="#9a32cd" stroke-dasharray="5,2" d="M53.5,-181.04C53.5,-168.67 53.5,-153.12 53.5,-143.63"/>
<polygon fill="#9a32cd" stroke="#9a32cd" points="50,-181.23 53.5,-191.23 57,-181.23 50,-181.23"/>
<text text-anchor="middle" x="72.5" y="-165" font-family="Helvetica,sans-Serif" font-size="10.00"> Position</text>
</g>
</g>
</svg>
