<?xml version="1.0" encoding="UTF-8" standalone="no"?>
<!DOCTYPE svg PUBLIC "-//W3C//DTD SVG 1.1//EN"
 "http://www.w3.org/Graphics/SVG/1.1/DTD/svg11.dtd">
<!-- Generated by graphviz version 2.44.0 ()
 -->
<!-- Title: spic::Button Pages: 1 -->
<svg width="155pt" height="142pt"
 viewBox="0.00 0.00 155.00 142.00" xmlns="http://www.w3.org/2000/svg" xmlns:xlink="http://www.w3.org/1999/xlink">
<g id="graph0" class="graph" transform="scale(1 1) rotate(0) translate(4 138)">
<title>spic::Button</title>
<polygon fill="white" stroke="transparent" points="-4,4 -4,-138 151,-138 151,4 -4,4"/>
<!-- Node1 -->
<g id="node1" class="node">
<title>Node1</title>
<g id="a_node1"><a xlink:title="Instances of this class are clickable user interface items.">
<polygon fill="#bfbfbf" stroke="black" points="13,-0.5 13,-19.5 81,-19.5 81,-0.5 13,-0.5"/>
<text text-anchor="middle" x="47" y="-7.5" font-family="Helvetica,sans-Serif" font-size="10.00">spic::Button</text>
</a>
</g>
</g>
<!-- Node1&#45;&gt;Node1 -->
<g id="edge4" class="edge">
<title>Node1&#45;&gt;Node1</title>
<path fill="none" stroke="#9a32cd" stroke-dasharray="5,2" d="M91.15,-14.39C95.92,-13.55 99,-12.08 99,-10 99,-6.66 91.13,-4.92 81.01,-4.76"/>
<polygon fill="#9a32cd" stroke="#9a32cd" points="90.68,-10.92 81.01,-15.24 91.27,-17.89 90.68,-10.92"/>
<text text-anchor="middle" x="111.5" y="-7.5" font-family="Helvetica,sans-Serif" font-size="10.00"> Click</text>
</g>
<!-- Node2 -->
<g id="node2" class="node">
<title>Node2</title>
<g id="a_node2"><a xlink:href="classspic_1_1UIObject.html" target="_top" xlink:title="Base class for a user interface object like Button or Text.">
<polygon fill="white" stroke="black" points="8,-57.5 8,-76.5 86,-76.5 86,-57.5 8,-57.5"/>
<text text-anchor="middle" x="47" y="-64.5" font-family="Helvetica,sans-Serif" font-size="10.00">spic::UIObject</text>
</a>
</g>
</g>
<!-- Node2&#45;&gt;Node1 -->
<g id="edge1" class="edge">
<title>Node2&#45;&gt;Node1</title>
<path fill="none" stroke="midnightblue" d="M47,-47.12C47,-37.82 47,-27.06 47,-19.71"/>
<polygon fill="midnightblue" stroke="midnightblue" points="43.5,-47.41 47,-57.41 50.5,-47.41 43.5,-47.41"/>
</g>
<!-- Node2&#45;&gt;Node2 -->
<g id="edge3" class="edge">
<title>Node2&#45;&gt;Node2</title>
<path fill="none" stroke="#9a32cd" stroke-dasharray="5,2" d="M96.28,-71.24C101,-70.38 104,-68.97 104,-67 104,-63.86 96.33,-62.12 86.16,-61.8"/>
<polygon fill="#9a32cd" stroke="#9a32cd" points="95.79,-67.77 86.16,-72.2 96.45,-74.74 95.79,-67.77"/>
<text text-anchor="middle" x="125.5" y="-64.5" font-family="Helvetica,sans-Serif" font-size="10.00"> GetWidth</text>
</g>
<!-- Node3 -->
<g id="node3" class="node">
<title>Node3</title>
<g id="a_node3"><a xlink:href="classspic_1_1GameObject.html" target="_top" xlink:title="Any object which should be represented on screen.">
<polygon fill="white" stroke="black" points="0,-114.5 0,-133.5 94,-133.5 94,-114.5 0,-114.5"/>
<text text-anchor="middle" x="47" y="-121.5" font-family="Helvetica,sans-Serif" font-size="10.00">spic::GameObject</text>
</a>
</g>
</g>
<!-- Node3&#45;&gt;Node2 -->
<g id="edge2" class="edge">
<title>Node3&#45;&gt;Node2</title>
<path fill="none" stroke="midnightblue" d="M47,-104.12C47,-94.82 47,-84.06 47,-76.71"/>
<polygon fill="midnightblue" stroke="midnightblue" points="43.5,-104.41 47,-114.41 50.5,-104.41 43.5,-104.41"/>
</g>
</g>
</svg>
