<?xml version="1.0" encoding="UTF-8" standalone="no"?>
<!DOCTYPE svg PUBLIC "-//W3C//DTD SVG 1.1//EN"
 "http://www.w3.org/Graphics/SVG/1.1/DTD/svg11.dtd">
<!-- Generated by graphviz version 2.44.0 ()
 -->
<!-- Title: spic::Camera Pages: 1 -->
<svg width="203pt" height="85pt"
 viewBox="0.00 0.00 202.50 85.00" xmlns="http://www.w3.org/2000/svg" xmlns:xlink="http://www.w3.org/1999/xlink">
<g id="graph0" class="graph" transform="scale(1 1) rotate(0) translate(4 81)">
<title>spic::Camera</title>
<polygon fill="white" stroke="transparent" points="-4,4 -4,-81 198.5,-81 198.5,4 -4,4"/>
<!-- Node1 -->
<g id="node1" class="node">
<title>Node1</title>
<g id="a_node1"><a xlink:title="Class representing a point of view towards the game scene.">
<polygon fill="#bfbfbf" stroke="black" points="10.5,-0.5 10.5,-19.5 83.5,-19.5 83.5,-0.5 10.5,-0.5"/>
<text text-anchor="middle" x="47" y="-7.5" font-family="Helvetica,sans-Serif" font-size="10.00">spic::Camera</text>
</a>
</g>
</g>
<!-- Node1&#45;&gt;Node1 -->
<g id="edge2" class="edge">
<title>Node1&#45;&gt;Node1</title>
<path fill="none" stroke="#9a32cd" stroke-dasharray="5,2" d="M93.76,-14.31C98.48,-13.45 101.5,-12.02 101.5,-10 101.5,-6.77 93.78,-5.03 83.68,-4.78"/>
<polygon fill="#9a32cd" stroke="#9a32cd" points="93.32,-10.83 83.68,-15.22 93.95,-17.8 93.32,-10.83"/>
<text text-anchor="middle" x="148" y="-7.5" font-family="Helvetica,sans-Serif" font-size="10.00"> GetBackgroundColor</text>
</g>
<!-- Node2 -->
<g id="node2" class="node">
<title>Node2</title>
<g id="a_node2"><a xlink:href="classspic_1_1GameObject.html" target="_top" xlink:title="Any object which should be represented on screen.">
<polygon fill="white" stroke="black" points="0,-57.5 0,-76.5 94,-76.5 94,-57.5 0,-57.5"/>
<text text-anchor="middle" x="47" y="-64.5" font-family="Helvetica,sans-Serif" font-size="10.00">spic::GameObject</text>
</a>
</g>
</g>
<!-- Node2&#45;&gt;Node1 -->
<g id="edge1" class="edge">
<title>Node2&#45;&gt;Node1</title>
<path fill="none" stroke="midnightblue" d="M47,-47.12C47,-37.82 47,-27.06 47,-19.71"/>
<polygon fill="midnightblue" stroke="midnightblue" points="43.5,-47.41 47,-57.41 50.5,-47.41 43.5,-47.41"/>
</g>
</g>
</svg>
