<?xml version="1.0" encoding="UTF-8" standalone="no"?>
<!DOCTYPE svg PUBLIC "-//W3C//DTD SVG 1.1//EN"
 "http://www.w3.org/Graphics/SVG/1.1/DTD/svg11.dtd">
<!-- Generated by graphviz version 2.44.0 ()
 -->
<!-- Title: spic::GameObject Pages: 1 -->
<svg width="115pt" height="162pt"
 viewBox="0.00 0.00 115.00 162.00" xmlns="http://www.w3.org/2000/svg" xmlns:xlink="http://www.w3.org/1999/xlink">
<g id="graph0" class="graph" transform="scale(1 1) rotate(0) translate(4 158)">
<title>spic::GameObject</title>
<polygon fill="white" stroke="transparent" points="-4,4 -4,-158 111,-158 111,4 -4,4"/>
<!-- Node1 -->
<g id="node1" class="node">
<title>Node1</title>
<g id="a_node1"><a xlink:title="Any object which should be represented on screen.">
<polygon fill="#bfbfbf" stroke="black" points="6.5,-0.5 6.5,-19.5 100.5,-19.5 100.5,-0.5 6.5,-0.5"/>
<text text-anchor="middle" x="53.5" y="-7.5" font-family="Helvetica,sans-Serif" font-size="10.00">spic::GameObject</text>
</a>
</g>
</g>
<!-- Node2 -->
<g id="node2" class="node">
<title>Node2</title>
<g id="a_node2"><a xlink:href="classspic_1_1Transform.html" target="_top" xlink:title="Instances of this class represent specific 2D transformations.">
<polygon fill="white" stroke="black" points="12,-67.5 12,-86.5 95,-86.5 95,-67.5 12,-67.5"/>
<text text-anchor="middle" x="53.5" y="-74.5" font-family="Helvetica,sans-Serif" font-size="10.00">spic::Transform</text>
</a>
</g>
</g>
<!-- Node2&#45;&gt;Node1 -->
<g id="edge1" class="edge">
<title>Node2&#45;&gt;Node1</title>
<path fill="none" stroke="#9a32cd" stroke-dasharray="5,2" d="M53.5,-57.04C53.5,-44.67 53.5,-29.12 53.5,-19.63"/>
<polygon fill="#9a32cd" stroke="#9a32cd" points="50,-57.23 53.5,-67.23 57,-57.23 50,-57.23"/>
<text text-anchor="middle" x="75.5" y="-41" font-family="Helvetica,sans-Serif" font-size="10.00"> transform</text>
</g>
<!-- Node3 -->
<g id="node3" class="node">
<title>Node3</title>
<g id="a_node3"><a xlink:href="structspic_1_1Vector2.html" target="_top" xlink:title=" ">
<polygon fill="white" stroke="black" points="0,-134.5 0,-153.5 107,-153.5 107,-134.5 0,-134.5"/>
<text text-anchor="middle" x="53.5" y="-141.5" font-family="Helvetica,sans-Serif" font-size="10.00">spic::Vector2&lt; float &gt;</text>
</a>
</g>
</g>
<!-- Node3&#45;&gt;Node2 -->
<g id="edge2" class="edge">
<title>Node3&#45;&gt;Node2</title>
<path fill="none" stroke="#9a32cd" stroke-dasharray="5,2" d="M53.5,-124.04C53.5,-111.67 53.5,-96.12 53.5,-86.63"/>
<polygon fill="#9a32cd" stroke="#9a32cd" points="50,-124.23 53.5,-134.23 57,-124.23 50,-124.23"/>
<text text-anchor="middle" x="72.5" y="-108" font-family="Helvetica,sans-Serif" font-size="10.00"> Position</text>
</g>
</g>
</svg>
