<?xml version="1.0" encoding="UTF-8" standalone="no"?>
<!DOCTYPE svg PUBLIC "-//W3C//DTD SVG 1.1//EN"
 "http://www.w3.org/Graphics/SVG/1.1/DTD/svg11.dtd">
<!-- Generated by graphviz version 2.44.0 ()
 -->
<!-- Title: Graphical Class Hierarchy Pages: 1 -->
<svg width="383pt" height="256pt"
 viewBox="0.00 0.00 383.00 256.00" xmlns="http://www.w3.org/2000/svg" xmlns:xlink="http://www.w3.org/1999/xlink">
<g id="graph0" class="graph" transform="scale(1 1) rotate(0) translate(4 252)">
<title>Graphical Class Hierarchy</title>
<polygon fill="white" stroke="transparent" points="-4,4 -4,-252 379,-252 379,4 -4,4"/>
<!-- Node0 -->
<g id="node1" class="node">
<title>Node0</title>
<g id="a_node1"><a xlink:href="classspic_1_1Component.html" target="_top" xlink:title="Base class for all components.">
<polygon fill="white" stroke="black" points="0,-114.5 0,-133.5 89,-133.5 89,-114.5 0,-114.5"/>
<text text-anchor="middle" x="44.5" y="-121.5" font-family="Helvetica,sans-Serif" font-size="10.00">spic::Component</text>
</a>
</g>
</g>
<!-- Node1 -->
<g id="node2" class="node">
<title>Node1</title>
<g id="a_node2"><a xlink:href="classspic_1_1Animator.html" target="_top" xlink:title="A component which can play animated sequences of sprites.">
<polygon fill="white" stroke="black" points="140,-228.5 140,-247.5 218,-247.5 218,-228.5 140,-228.5"/>
<text text-anchor="middle" x="179" y="-235.5" font-family="Helvetica,sans-Serif" font-size="10.00">spic::Animator</text>
</a>
</g>
</g>
<!-- Node0&#45;&gt;Node1 -->
<g id="edge1" class="edge">
<title>Node0&#45;&gt;Node1</title>
<path fill="none" stroke="midnightblue" d="M56.45,-142.22C70.06,-163.42 95.17,-198.19 125,-219 130.45,-222.8 136.75,-225.93 143.05,-228.46"/>
<polygon fill="midnightblue" stroke="midnightblue" points="59.29,-140.16 51.03,-133.52 53.35,-143.86 59.29,-140.16"/>
</g>
<!-- Node2 -->
<g id="node3" class="node">
<title>Node2</title>
<g id="a_node3"><a xlink:href="classspic_1_1AudioSource.html" target="_top" xlink:title="Component which can play audio.">
<polygon fill="white" stroke="black" points="131.5,-190.5 131.5,-209.5 226.5,-209.5 226.5,-190.5 131.5,-190.5"/>
<text text-anchor="middle" x="179" y="-197.5" font-family="Helvetica,sans-Serif" font-size="10.00">spic::AudioSource</text>
</a>
</g>
</g>
<!-- Node0&#45;&gt;Node2 -->
<g id="edge2" class="edge">
<title>Node0&#45;&gt;Node2</title>
<path fill="none" stroke="midnightblue" d="M64.5,-139.94C80.02,-152.37 102.92,-169.42 125,-181 131.84,-184.59 139.5,-187.77 146.83,-190.46"/>
<polygon fill="midnightblue" stroke="midnightblue" points="66.65,-137.18 56.69,-133.57 62.23,-142.6 66.65,-137.18"/>
</g>
<!-- Node3 -->
<g id="node4" class="node">
<title>Node3</title>
<g id="a_node4"><a xlink:href="classspic_1_1BehaviourScript.html" target="_top" xlink:title=" ">
<polygon fill="white" stroke="black" points="125,-152.5 125,-171.5 233,-171.5 233,-152.5 125,-152.5"/>
<text text-anchor="middle" x="179" y="-159.5" font-family="Helvetica,sans-Serif" font-size="10.00">spic::BehaviourScript</text>
</a>
</g>
</g>
<!-- Node0&#45;&gt;Node3 -->
<g id="edge3" class="edge">
<title>Node0&#45;&gt;Node3</title>
<path fill="none" stroke="midnightblue" d="M88.7,-136.39C106.85,-141.59 127.63,-147.55 144.58,-152.41"/>
<polygon fill="midnightblue" stroke="midnightblue" points="89.51,-132.98 78.94,-133.59 87.58,-139.71 89.51,-132.98"/>
</g>
<!-- Node4 -->
<g id="node5" class="node">
<title>Node4</title>
<g id="a_node5"><a xlink:href="classspic_1_1Collider.html" target="_top" xlink:title="The base class for all colliders.">
<polygon fill="white" stroke="black" points="143.5,-114.5 143.5,-133.5 214.5,-133.5 214.5,-114.5 143.5,-114.5"/>
<text text-anchor="middle" x="179" y="-121.5" font-family="Helvetica,sans-Serif" font-size="10.00">spic::Collider</text>
</a>
</g>
</g>
<!-- Node0&#45;&gt;Node4 -->
<g id="edge4" class="edge">
<title>Node0&#45;&gt;Node4</title>
<path fill="none" stroke="midnightblue" d="M99.3,-124C114.07,-124 129.69,-124 143.1,-124"/>
<polygon fill="midnightblue" stroke="midnightblue" points="99.25,-120.5 89.25,-124 99.25,-127.5 99.25,-120.5"/>
</g>
<!-- Node8 -->
<g id="node9" class="node">
<title>Node8</title>
<g id="a_node9"><a xlink:href="classspic_1_1ParticleEmitter.html" target="_top" xlink:title=" ">
<polygon fill="white" stroke="black" points="127.5,-76.5 127.5,-95.5 230.5,-95.5 230.5,-76.5 127.5,-76.5"/>
<text text-anchor="middle" x="179" y="-83.5" font-family="Helvetica,sans-Serif" font-size="10.00">spic::ParticleEmitter</text>
</a>
</g>
</g>
<!-- Node0&#45;&gt;Node8 -->
<g id="edge8" class="edge">
<title>Node0&#45;&gt;Node8</title>
<path fill="none" stroke="midnightblue" d="M88.7,-111.61C106.85,-106.41 127.63,-100.45 144.58,-95.59"/>
<polygon fill="midnightblue" stroke="midnightblue" points="87.58,-108.29 78.94,-114.41 89.51,-115.02 87.58,-108.29"/>
</g>
<!-- Node9 -->
<g id="node10" class="node">
<title>Node9</title>
<g id="a_node10"><a xlink:href="classspic_1_1RigidBody.html" target="_top" xlink:title="A component representing a rigid body.">
<polygon fill="white" stroke="black" points="137.5,-38.5 137.5,-57.5 220.5,-57.5 220.5,-38.5 137.5,-38.5"/>
<text text-anchor="middle" x="179" y="-45.5" font-family="Helvetica,sans-Serif" font-size="10.00">spic::RigidBody</text>
</a>
</g>
</g>
<!-- Node0&#45;&gt;Node9 -->
<g id="edge9" class="edge">
<title>Node0&#45;&gt;Node9</title>
<path fill="none" stroke="midnightblue" d="M64.5,-108.06C80.02,-95.63 102.92,-78.58 125,-67 131.84,-63.41 139.5,-60.23 146.83,-57.54"/>
<polygon fill="midnightblue" stroke="midnightblue" points="62.23,-105.4 56.69,-114.43 66.65,-110.82 62.23,-105.4"/>
</g>
<!-- Node10 -->
<g id="node11" class="node">
<title>Node10</title>
<g id="a_node11"><a xlink:href="classspic_1_1Sprite.html" target="_top" xlink:title="A component representing a sprite (small image)">
<polygon fill="white" stroke="black" points="146.5,-0.5 146.5,-19.5 211.5,-19.5 211.5,-0.5 146.5,-0.5"/>
<text text-anchor="middle" x="179" y="-7.5" font-family="Helvetica,sans-Serif" font-size="10.00">spic::Sprite</text>
</a>
</g>
</g>
<!-- Node0&#45;&gt;Node10 -->
<g id="edge10" class="edge">
<title>Node0&#45;&gt;Node10</title>
<path fill="none" stroke="midnightblue" d="M56.45,-105.78C70.06,-84.58 95.17,-49.81 125,-29 131.41,-24.53 138.99,-20.99 146.39,-18.25"/>
<polygon fill="midnightblue" stroke="midnightblue" points="53.35,-104.14 51.03,-114.48 59.29,-107.84 53.35,-104.14"/>
</g>
<!-- Node5 -->
<g id="node6" class="node">
<title>Node5</title>
<g id="a_node6"><a xlink:href="classspic_1_1BoxCollider.html" target="_top" xlink:title="A collider which represents a rectangular collision area.">
<polygon fill="white" stroke="black" points="278,-152.5 278,-171.5 366,-171.5 366,-152.5 278,-152.5"/>
<text text-anchor="middle" x="322" y="-159.5" font-family="Helvetica,sans-Serif" font-size="10.00">spic::BoxCollider</text>
</a>
</g>
</g>
<!-- Node4&#45;&gt;Node5 -->
<g id="edge5" class="edge">
<title>Node4&#45;&gt;Node5</title>
<path fill="none" stroke="midnightblue" d="M224.53,-136C244.22,-141.31 267.06,-147.46 285.57,-152.45"/>
<polygon fill="midnightblue" stroke="midnightblue" points="225.42,-132.62 214.85,-133.39 223.6,-139.37 225.42,-132.62"/>
</g>
<!-- Node6 -->
<g id="node7" class="node">
<title>Node6</title>
<g id="a_node7"><a xlink:href="classspic_1_1CircleCollider.html" target="_top" xlink:title="A collider which represents a circular collision area.">
<polygon fill="white" stroke="black" points="274,-114.5 274,-133.5 370,-133.5 370,-114.5 274,-114.5"/>
<text text-anchor="middle" x="322" y="-121.5" font-family="Helvetica,sans-Serif" font-size="10.00">spic::CircleCollider</text>
</a>
</g>
</g>
<!-- Node4&#45;&gt;Node6 -->
<g id="edge6" class="edge">
<title>Node4&#45;&gt;Node6</title>
<path fill="none" stroke="midnightblue" d="M225.24,-124C240.75,-124 258.13,-124 273.78,-124"/>
<polygon fill="midnightblue" stroke="midnightblue" points="224.85,-120.5 214.85,-124 224.85,-127.5 224.85,-120.5"/>
</g>
<!-- Node7 -->
<g id="node8" class="node">
<title>Node7</title>
<g id="a_node8"><a xlink:href="classspic_1_1PolygonCollider.html" target="_top" xlink:title=" ">
<polygon fill="white" stroke="black" points="269,-76.5 269,-95.5 375,-95.5 375,-76.5 269,-76.5"/>
<text text-anchor="middle" x="322" y="-83.5" font-family="Helvetica,sans-Serif" font-size="10.00">spic::PolygonCollider</text>
</a>
</g>
</g>
<!-- Node4&#45;&gt;Node7 -->
<g id="edge7" class="edge">
<title>Node4&#45;&gt;Node7</title>
<path fill="none" stroke="midnightblue" d="M224.53,-112C244.22,-106.69 267.06,-100.54 285.57,-95.55"/>
<polygon fill="midnightblue" stroke="midnightblue" points="223.6,-108.63 214.85,-114.61 225.42,-115.38 223.6,-108.63"/>
</g>
</g>
</svg>
