<?xml version="1.0" encoding="UTF-8" standalone="no"?>
<!DOCTYPE svg PUBLIC "-//W3C//DTD SVG 1.1//EN"
 "http://www.w3.org/Graphics/SVG/1.1/DTD/svg11.dtd">
<!-- Generated by graphviz version 2.44.0 ()
 -->
<!-- Title: spic::Particle Pages: 1 -->
<svg width="186pt" height="106pt"
 viewBox="0.00 0.00 185.50 106.00" xmlns="http://www.w3.org/2000/svg" xmlns:xlink="http://www.w3.org/1999/xlink">
<g id="graph0" class="graph" transform="scale(1 1) rotate(0) translate(4 102)">
<title>spic::Particle</title>
<polygon fill="white" stroke="transparent" points="-4,4 -4,-102 181.5,-102 181.5,4 -4,4"/>
<!-- Node1 -->
<g id="node1" class="node">
<title>Node1</title>
<g id="a_node1"><a xlink:title=" ">
<polygon fill="#bfbfbf" stroke="black" points="59.5,-0.5 59.5,-19.5 131.5,-19.5 131.5,-0.5 59.5,-0.5"/>
<text text-anchor="middle" x="95.5" y="-7.5" font-family="Helvetica,sans-Serif" font-size="10.00">spic::Particle</text>
</a>
</g>
</g>
<!-- Node2 -->
<g id="node2" class="node">
<title>Node2</title>
<g id="a_node2"><a xlink:href="structspic_1_1Vector2.html" target="_top" xlink:title="Struct representing both a 2D point and a 2D vector.">
<polygon fill="white" stroke="black" points="0,-78.5 0,-97.5 95,-97.5 95,-78.5 0,-78.5"/>
<text text-anchor="middle" x="47.5" y="-85.5" font-family="Helvetica,sans-Serif" font-size="10.00">spic::Vector2&lt; T &gt;</text>
</a>
</g>
</g>
<!-- Node2&#45;&gt;Node1 -->
<g id="edge1" class="edge">
<title>Node2&#45;&gt;Node1</title>
<path fill="none" stroke="#9a32cd" stroke-dasharray="5,2" d="M49.07,-68.15C50.6,-58.5 53.6,-46.93 59.5,-38 64.49,-30.44 72.35,-24.19 79.46,-19.61"/>
<polygon fill="#9a32cd" stroke="#9a32cd" points="45.57,-67.99 47.87,-78.33 52.52,-68.81 45.57,-67.99"/>
<text text-anchor="middle" x="91" y="-52" font-family="Helvetica,sans-Serif" font-size="10.00"> EmissionArea</text>
<text text-anchor="middle" x="91" y="-41" font-family="Helvetica,sans-Serif" font-size="10.00">Gravity</text>
</g>
<!-- Node3 -->
<g id="node3" class="node">
<title>Node3</title>
<g id="a_node3"><a xlink:href="classspic_1_1Color.html" target="_top" xlink:title="Color represents a red&#45;green&#45;blue color with alpha.">
<polygon fill="white" stroke="black" points="113.5,-78.5 113.5,-97.5 175.5,-97.5 175.5,-78.5 113.5,-78.5"/>
<text text-anchor="middle" x="144.5" y="-85.5" font-family="Helvetica,sans-Serif" font-size="10.00">spic::Color</text>
</a>
</g>
</g>
<!-- Node3&#45;&gt;Node1 -->
<g id="edge2" class="edge">
<title>Node3&#45;&gt;Node1</title>
<path fill="none" stroke="#9a32cd" stroke-dasharray="5,2" d="M138.16,-68.8C134.38,-59.19 129.03,-47.47 122.5,-38 117.83,-31.23 111.35,-24.69 105.91,-19.74"/>
<polygon fill="#9a32cd" stroke="#9a32cd" points="134.88,-70.02 141.64,-78.18 141.45,-67.59 134.88,-70.02"/>
<text text-anchor="middle" x="155.5" y="-52" font-family="Helvetica,sans-Serif" font-size="10.00"> EndColor</text>
<text text-anchor="middle" x="155.5" y="-41" font-family="Helvetica,sans-Serif" font-size="10.00">StartColor</text>
</g>
</g>
</svg>
