<?xml version="1.0" encoding="UTF-8" standalone="no"?>
<!DOCTYPE svg PUBLIC "-//W3C//DTD SVG 1.1//EN"
 "http://www.w3.org/Graphics/SVG/1.1/DTD/svg11.dtd">
<!-- Generated by graphviz version 2.44.0 ()
 -->
<!-- Title: spic::Ray Pages: 1 -->
<svg width="103pt" height="106pt"
 viewBox="0.00 0.00 103.00 106.00" xmlns="http://www.w3.org/2000/svg" xmlns:xlink="http://www.w3.org/1999/xlink">
<g id="graph0" class="graph" transform="scale(1 1) rotate(0) translate(4 102)">
<title>spic::Ray</title>
<polygon fill="white" stroke="transparent" points="-4,4 -4,-102 99,-102 99,4 -4,4"/>
<!-- Node1 -->
<g id="node1" class="node">
<title>Node1</title>
<g id="a_node1"><a xlink:title=" ">
<polygon fill="#bfbfbf" stroke="black" points="19.5,-0.5 19.5,-19.5 75.5,-19.5 75.5,-0.5 19.5,-0.5"/>
<text text-anchor="middle" x="47.5" y="-7.5" font-family="Helvetica,sans-Serif" font-size="10.00">spic::Ray</text>
</a>
</g>
</g>
<!-- Node2 -->
<g id="node2" class="node">
<title>Node2</title>
<g id="a_node2"><a xlink:href="structspic_1_1Vector2.html" target="_top" xlink:title="Struct representing both a 2D point and a 2D vector.">
<polygon fill="white" stroke="black" points="0,-78.5 0,-97.5 95,-97.5 95,-78.5 0,-78.5"/>
<text text-anchor="middle" x="47.5" y="-85.5" font-family="Helvetica,sans-Serif" font-size="10.00">spic::Vector2&lt; T &gt;</text>
</a>
</g>
</g>
<!-- Node2&#45;&gt;Node1 -->
<g id="edge1" class="edge">
<title>Node2&#45;&gt;Node1</title>
<path fill="none" stroke="#9a32cd" stroke-dasharray="5,2" d="M47.5,-68.22C47.5,-52.7 47.5,-31.36 47.5,-19.62"/>
<polygon fill="#9a32cd" stroke="#9a32cd" points="44,-68.28 47.5,-78.28 51,-68.28 44,-68.28"/>
<text text-anchor="middle" x="68" y="-52" font-family="Helvetica,sans-Serif" font-size="10.00"> Direction</text>
<text text-anchor="middle" x="68" y="-41" font-family="Helvetica,sans-Serif" font-size="10.00">Origin</text>
</g>
</g>
</svg>
