<?xml version="1.0" encoding="UTF-8" standalone="no"?>
<!DOCTYPE svg PUBLIC "-//W3C//DTD SVG 1.1//EN"
 "http://www.w3.org/Graphics/SVG/1.1/DTD/svg11.dtd">
<!-- Generated by graphviz version 2.44.0 ()
 -->
<!-- Title: spic::Events::CollisionEvent Pages: 1 -->
<svg width="265pt" height="173pt"
 viewBox="0.00 0.00 265.00 173.00" xmlns="http://www.w3.org/2000/svg" xmlns:xlink="http://www.w3.org/1999/xlink">
<g id="graph0" class="graph" transform="scale(1 1) rotate(0) translate(4 169)">
<title>spic::Events::CollisionEvent</title>
<polygon fill="white" stroke="transparent" points="-4,4 -4,-169 261,-169 261,4 -4,4"/>
<!-- Node1 -->
<g id="node1" class="node">
<title>Node1</title>
<g id="a_node1"><a xlink:title=" ">
<polygon fill="#bfbfbf" stroke="black" points="0,-0.5 0,-19.5 135,-19.5 135,-0.5 0,-0.5"/>
<text text-anchor="middle" x="67.5" y="-7.5" font-family="Helvetica,sans-Serif" font-size="10.00">spic::Events::CollisionEvent</text>
</a>
</g>
</g>
<!-- Node2 -->
<g id="node2" class="node">
<title>Node2</title>
<g id="a_node2"><a xlink:href="structspic_1_1Events_1_1Event.html" target="_top" xlink:title=" ">
<polygon fill="white" stroke="black" points="2.5,-78.5 2.5,-97.5 100.5,-97.5 100.5,-78.5 2.5,-78.5"/>
<text text-anchor="middle" x="51.5" y="-85.5" font-family="Helvetica,sans-Serif" font-size="10.00">spic::Events::Event</text>
</a>
</g>
</g>
<!-- Node2&#45;&gt;Node1 -->
<g id="edge1" class="edge">
<title>Node2&#45;&gt;Node1</title>
<path fill="none" stroke="midnightblue" d="M55.45,-68.22C58.72,-52.7 63.21,-31.36 65.69,-19.62"/>
<polygon fill="midnightblue" stroke="midnightblue" points="51.97,-67.78 53.34,-78.28 58.82,-69.22 51.97,-67.78"/>
</g>
<!-- Node3 -->
<g id="node3" class="node">
<title>Node3</title>
<g id="a_node3"><a xlink:href="classspic_1_1Collider.html" target="_top" xlink:title="The base class for all colliders.">
<polygon fill="white" stroke="black" points="119,-78.5 119,-97.5 190,-97.5 190,-78.5 119,-78.5"/>
<text text-anchor="middle" x="154.5" y="-85.5" font-family="Helvetica,sans-Serif" font-size="10.00">spic::Collider</text>
</a>
</g>
</g>
<!-- Node3&#45;&gt;Node1 -->
<g id="edge2" class="edge">
<title>Node3&#45;&gt;Node1</title>
<path fill="none" stroke="#9a32cd" stroke-dasharray="5,2" d="M136.53,-71.3C118.6,-55.64 91.72,-32.16 77.36,-19.62"/>
<polygon fill="#9a32cd" stroke="#9a32cd" points="134.69,-74.34 144.52,-78.28 139.29,-69.07 134.69,-74.34"/>
<text text-anchor="middle" x="150" y="-52" font-family="Helvetica,sans-Serif" font-size="10.00"> Collider</text>
<text text-anchor="middle" x="150" y="-41" font-family="Helvetica,sans-Serif" font-size="10.00">OtherCollider</text>
</g>
<!-- Node4 -->
<g id="node4" class="node">
<title>Node4</title>
<g id="a_node4"><a xlink:href="classspic_1_1Component.html" target="_top" xlink:title="Base class for all components.">
<polygon fill="white" stroke="black" points="55,-145.5 55,-164.5 144,-164.5 144,-145.5 55,-145.5"/>
<text text-anchor="middle" x="99.5" y="-152.5" font-family="Helvetica,sans-Serif" font-size="10.00">spic::Component</text>
</a>
</g>
</g>
<!-- Node4&#45;&gt;Node3 -->
<g id="edge3" class="edge">
<title>Node4&#45;&gt;Node3</title>
<path fill="none" stroke="midnightblue" d="M113.66,-137.27C124.38,-124.6 138.68,-107.7 147.2,-97.63"/>
<polygon fill="midnightblue" stroke="midnightblue" points="110.71,-135.34 106.92,-145.23 116.05,-139.86 110.71,-135.34"/>
</g>
<!-- Node5 -->
<g id="node5" class="node">
<title>Node5</title>
<g id="a_node5"><a xlink:href="structspic_1_1Vector2.html" target="_top" xlink:title="Struct representing both a 2D point and a 2D vector.">
<polygon fill="white" stroke="black" points="162,-145.5 162,-164.5 257,-164.5 257,-145.5 162,-145.5"/>
<text text-anchor="middle" x="209.5" y="-152.5" font-family="Helvetica,sans-Serif" font-size="10.00">spic::Vector2&lt; T &gt;</text>
</a>
</g>
</g>
<!-- Node5&#45;&gt;Node3 -->
<g id="edge4" class="edge">
<title>Node5&#45;&gt;Node3</title>
<path fill="none" stroke="#9a32cd" stroke-dasharray="5,2" d="M195.34,-137.27C184.62,-124.6 170.32,-107.7 161.8,-97.63"/>
<polygon fill="#9a32cd" stroke="#9a32cd" points="192.95,-139.86 202.08,-145.23 198.29,-135.34 192.95,-139.86"/>
<text text-anchor="middle" x="198" y="-119" font-family="Helvetica,sans-Serif" font-size="10.00"> offset</text>
</g>
</g>
</svg>
