<?xml version="1.0" encoding="UTF-8" standalone="no"?>
<!DOCTYPE svg PUBLIC "-//W3C//DTD SVG 1.1//EN"
 "http://www.w3.org/Graphics/SVG/1.1/DTD/svg11.dtd">
<!-- Generated by graphviz version 2.44.0 ()
 -->
<!-- Title: spic::Particle Pages: 1 -->
<svg width="195pt" height="106pt"
 viewBox="0.00 0.00 194.50 106.00" xmlns="http://www.w3.org/2000/svg" xmlns:xlink="http://www.w3.org/1999/xlink">
<g id="graph0" class="graph" transform="scale(1 1) rotate(0) translate(4 102)">
<title>spic::Particle</title>
<polygon fill="white" stroke="transparent" points="-4,4 -4,-102 190.5,-102 190.5,4 -4,4"/>
<!-- Node1 -->
<g id="node1" class="node">
<title>Node1</title>
<g id="a_node1"><a xlink:title=" ">
<polygon fill="#bfbfbf" stroke="black" points="46,-0.5 46,-19.5 118,-19.5 118,-0.5 46,-0.5"/>
<text text-anchor="middle" x="82" y="-7.5" font-family="Helvetica,sans-Serif" font-size="10.00">spic::Particle</text>
</a>
</g>
</g>
<!-- Node2 -->
<g id="node2" class="node">
<title>Node2</title>
<g id="a_node2"><a xlink:href="classspic_1_1Color.html" target="_top" xlink:title="Color represents a red&#45;green&#45;blue color with alpha.">
<polygon fill="white" stroke="black" points="0,-78.5 0,-97.5 62,-97.5 62,-78.5 0,-78.5"/>
<text text-anchor="middle" x="31" y="-85.5" font-family="Helvetica,sans-Serif" font-size="10.00">spic::Color</text>
</a>
</g>
</g>
<!-- Node2&#45;&gt;Node1 -->
<g id="edge1" class="edge">
<title>Node2&#45;&gt;Node1</title>
<path fill="none" stroke="#9a32cd" stroke-dasharray="5,2" d="M42.7,-69.57C53.18,-53.95 68.11,-31.7 76.22,-19.62"/>
<polygon fill="#9a32cd" stroke="#9a32cd" points="39.52,-68.03 36.85,-78.28 45.33,-71.93 39.52,-68.03"/>
<text text-anchor="middle" x="85" y="-52" font-family="Helvetica,sans-Serif" font-size="10.00"> EndColor</text>
<text text-anchor="middle" x="85" y="-41" font-family="Helvetica,sans-Serif" font-size="10.00">StartColor</text>
</g>
<!-- Node3 -->
<g id="node3" class="node">
<title>Node3</title>
<g id="a_node3"><a xlink:href="structspic_1_1Vector2.html" target="_top" xlink:title=" ">
<polygon fill="white" stroke="black" points="79.5,-78.5 79.5,-97.5 186.5,-97.5 186.5,-78.5 79.5,-78.5"/>
<text text-anchor="middle" x="133" y="-85.5" font-family="Helvetica,sans-Serif" font-size="10.00">spic::Vector2&lt; float &gt;</text>
</a>
</g>
</g>
<!-- Node3&#45;&gt;Node1 -->
<g id="edge2" class="edge">
<title>Node3&#45;&gt;Node1</title>
<path fill="none" stroke="#9a32cd" stroke-dasharray="5,2" d="M126.93,-69.05C123.18,-59.35 117.78,-47.46 111,-38 106.03,-31.07 99.07,-24.51 93.22,-19.6"/>
<polygon fill="#9a32cd" stroke="#9a32cd" points="123.65,-70.27 130.34,-78.49 130.24,-67.89 123.65,-70.27"/>
<text text-anchor="middle" x="154.5" y="-52" font-family="Helvetica,sans-Serif" font-size="10.00"> EmissionArea</text>
<text text-anchor="middle" x="154.5" y="-41" font-family="Helvetica,sans-Serif" font-size="10.00">Gravity</text>
</g>
</g>
</svg>
