<?xml version="1.0" encoding="UTF-8" standalone="no"?>
<!DOCTYPE svg PUBLIC "-//W3C//DTD SVG 1.1//EN"
 "http://www.w3.org/Graphics/SVG/1.1/DTD/svg11.dtd">
<!-- Generated by graphviz version 2.44.0 ()
 -->
<!-- Title: spic::Events::MouseEvent Pages: 1 -->
<svg width="220pt" height="95pt"
 viewBox="0.00 0.00 219.50 95.00" xmlns="http://www.w3.org/2000/svg" xmlns:xlink="http://www.w3.org/1999/xlink">
<g id="graph0" class="graph" transform="scale(1 1) rotate(0) translate(4 91)">
<title>spic::Events::MouseEvent</title>
<polygon fill="white" stroke="transparent" points="-4,4 -4,-91 215.5,-91 215.5,4 -4,4"/>
<!-- Node1 -->
<g id="node1" class="node">
<title>Node1</title>
<g id="a_node1"><a xlink:title=" ">
<polygon fill="#bfbfbf" stroke="black" points="42,-0.5 42,-19.5 170,-19.5 170,-0.5 42,-0.5"/>
<text text-anchor="middle" x="106" y="-7.5" font-family="Helvetica,sans-Serif" font-size="10.00">spic::Events::MouseEvent</text>
</a>
</g>
</g>
<!-- Node2 -->
<g id="node2" class="node">
<title>Node2</title>
<g id="a_node2"><a xlink:href="structspic_1_1Events_1_1Event.html" target="_top" xlink:title=" ">
<polygon fill="white" stroke="black" points="0,-67.5 0,-86.5 98,-86.5 98,-67.5 0,-67.5"/>
<text text-anchor="middle" x="49" y="-74.5" font-family="Helvetica,sans-Serif" font-size="10.00">spic::Events::Event</text>
</a>
</g>
</g>
<!-- Node2&#45;&gt;Node1 -->
<g id="edge1" class="edge">
<title>Node2&#45;&gt;Node1</title>
<path fill="none" stroke="midnightblue" d="M63.35,-59.63C74.5,-46.92 89.52,-29.8 98.43,-19.63"/>
<polygon fill="midnightblue" stroke="midnightblue" points="60.65,-57.41 56.69,-67.23 65.91,-62.02 60.65,-57.41"/>
</g>
<!-- Node3 -->
<g id="node3" class="node">
<title>Node3</title>
<g id="a_node3"><a xlink:href="structspic_1_1Vector2.html" target="_top" xlink:title="Struct representing both a 2D point and a 2D vector.">
<polygon fill="white" stroke="black" points="116.5,-67.5 116.5,-86.5 211.5,-86.5 211.5,-67.5 116.5,-67.5"/>
<text text-anchor="middle" x="164" y="-74.5" font-family="Helvetica,sans-Serif" font-size="10.00">spic::Vector2&lt; T &gt;</text>
</a>
</g>
</g>
<!-- Node3&#45;&gt;Node1 -->
<g id="edge2" class="edge">
<title>Node3&#45;&gt;Node1</title>
<path fill="none" stroke="#9a32cd" stroke-dasharray="5,2" d="M149.4,-59.63C138.05,-46.92 122.77,-29.8 113.7,-19.63"/>
<polygon fill="#9a32cd" stroke="#9a32cd" points="146.91,-62.1 156.18,-67.23 152.13,-57.44 146.91,-62.1"/>
<text text-anchor="middle" x="157" y="-41" font-family="Helvetica,sans-Serif" font-size="10.00"> Position</text>
</g>
</g>
</svg>
